<svg id="visual" viewBox="0 0 960 300" width="960" height="300" xmlns="http://www.w3.org/2000/svg" xmlns:xlink="http://www.w3.org/1999/xlink" version="1.1"><rect x="0" y="0" width="960" height="300" fill="#001220"></rect><path d="M0 204L13.3 207.8C26.7 211.7 53.3 219.3 80 220.2C106.7 221 133.3 215 160 202.8C186.7 190.7 213.3 172.3 240 173C266.7 173.7 293.3 193.3 320 195.5C346.7 197.7 373.3 182.3 400 171.5C426.7 160.7 453.3 154.3 480 158.3C506.7 162.3 533.3 176.7 560 184.2C586.7 191.7 613.3 192.3 640 187.8C666.7 183.3 693.3 173.7 720 170.7C746.7 167.7 773.3 171.3 800 171C826.7 170.7 853.3 166.3 880 170.7C906.7 175 933.3 188 946.7 194.5L960 201L960 0L946.7 0C933.3 0 906.7 0 880 0C853.3 0 826.7 0 800 0C773.3 0 746.7 0 720 0C693.3 0 666.7 0 640 0C613.3 0 586.7 0 560 0C533.3 0 506.7 0 480 0C453.3 0 426.7 0 400 0C373.3 0 346.7 0 320 0C293.3 0 266.7 0 240 0C213.3 0 186.7 0 160 0C133.3 0 106.7 0 80 0C53.3 0 26.7 0 13.3 0L0 0Z" fill="#c62368"></path><path d="M0 136L13.3 136.5C26.7 137 53.3 138 80 146.3C106.7 154.7 133.3 170.3 160 170.2C186.7 170 213.3 154 240 145.7C266.7 137.3 293.3 136.7 320 138.8C346.7 141 373.3 146 400 150.8C426.7 155.7 453.3 160.3 480 163.7C506.7 167 533.3 169 560 170.7C586.7 172.3 613.3 173.7 640 164.8C666.7 156 693.3 137 720 136.3C746.7 135.7 773.3 153.3 800 156.7C826.7 160 853.3 149 880 148.2C906.7 147.3 933.3 156.7 946.7 161.3L960 166L960 0L946.7 0C933.3 0 906.7 0 880 0C853.3 0 826.7 0 800 0C773.3 0 746.7 0 720 0C693.3 0 666.7 0 640 0C613.3 0 586.7 0 560 0C533.3 0 506.7 0 480 0C453.3 0 426.7 0 400 0C373.3 0 346.7 0 320 0C293.3 0 266.7 0 240 0C213.3 0 186.7 0 160 0C133.3 0 106.7 0 80 0C53.3 0 26.7 0 13.3 0L0 0Z" fill="#b0196a"></path><path d="M0 93L13.3 99.7C26.7 106.3 53.3 119.7 80 128.5C106.7 137.3 133.3 141.7 160 139.7C186.7 137.7 213.3 129.3 240 126.5C266.7 123.7 293.3 126.3 320 124.5C346.7 122.7 373.3 116.3 400 113.7C426.7 111 453.3 112 480 111.7C506.7 111.3 533.3 109.7 560 114C586.7 118.3 613.3 128.7 640 125.7C666.7 122.7 693.3 106.3 720 104C746.7 101.7 773.3 113.3 800 120.5C826.7 127.7 853.3 130.3 880 124.2C906.7 118 933.3 103 946.7 95.5L960 88L960 0L946.7 0C933.3 0 906.7 0 880 0C853.3 0 826.7 0 800 0C773.3 0 746.7 0 720 0C693.3 0 666.7 0 640 0C613.3 0 586.7 0 560 0C533.3 0 506.7 0 480 0C453.3 0 426.7 0 400 0C373.3 0 346.7 0 320 0C293.3 0 266.7 0 240 0C213.3 0 186.7 0 160 0C133.3 0 106.7 0 80 0C53.3 0 26.7 0 13.3 0L0 0Z" fill="#99136b"></path><path d="M0 64L13.3 62.3C26.7 60.7 53.3 57.3 80 58.2C106.7 59 133.3 64 160 68.5C186.7 73 213.3 77 240 78.7C266.7 80.3 293.3 79.7 320 83.5C346.7 87.3 373.3 95.7 400 96.3C426.7 97 453.3 90 480 89.2C506.7 88.3 533.3 93.7 560 89.2C586.7 84.7 613.3 70.3 640 69.3C666.7 68.3 693.3 80.7 720 84.7C746.7 88.7 773.3 84.3 800 82.2C826.7 80 853.3 80 880 84C906.7 88 933.3 96 946.7 100L960 104L960 0L946.7 0C933.3 0 906.7 0 880 0C853.3 0 826.7 0 800 0C773.3 0 746.7 0 720 0C693.3 0 666.7 0 640 0C613.3 0 586.7 0 560 0C533.3 0 506.7 0 480 0C453.3 0 426.7 0 400 0C373.3 0 346.7 0 320 0C293.3 0 266.7 0 240 0C213.3 0 186.7 0 160 0C133.3 0 106.7 0 80 0C53.3 0 26.7 0 13.3 0L0 0Z" fill="#811169"></path><path d="M0 34L13.3 34.7C26.7 35.3 53.3 36.7 80 41C106.7 45.3 133.3 52.7 160 52.5C186.7 52.3 213.3 44.7 240 39.2C266.7 33.7 293.3 30.3 320 31.7C346.7 33 373.3 39 400 41C426.7 43 453.3 41 480 43.8C506.7 46.7 533.3 54.3 560 56.8C586.7 59.3 613.3 56.7 640 52.7C666.7 48.7 693.3 43.3 720 38.2C746.7 33 773.3 28 800 27.2C826.7 26.3 853.3 29.7 880 30.8C906.7 32 933.3 31 946.7 30.5L960 30L960 0L946.7 0C933.3 0 906.7 0 880 0C853.3 0 826.7 0 800 0C773.3 0 746.7 0 720 0C693.3 0 666.7 0 640 0C613.3 0 586.7 0 560 0C533.3 0 506.7 0 480 0C453.3 0 426.7 0 400 0C373.3 0 346.7 0 320 0C293.3 0 266.7 0 240 0C213.3 0 186.7 0 160 0C133.3 0 106.7 0 80 0C53.3 0 26.7 0 13.3 0L0 0Z" fill="#681166"></path></svg>